<svg width="46" height="30" viewBox="0 0 46 30" fill="none" xmlns="http://www.w3.org/2000/svg">
<path d="M31.9934 16.0643L22.803 3.76316L13.6078 16.0643L2.85021 10.0601L7.95287 25.9628H37.6531L42.751 10.0601L31.9934 16.0643Z" fill="url(#paint0_linear_3577_34373)"/>
<path d="M38.3374 30H7.26358L7.88666 27.097H37.7143L38.3374 30Z" fill="url(#paint1_linear_3577_34373)"/>
<path d="M24.5517 1.75124C24.5517 2.7189 23.7681 3.50247 22.8005 3.50247C21.8328 3.50247 21.0492 2.7189 21.0492 1.75124C21.0492 0.783572 21.8328 0 22.8005 0C23.7681 0 24.5517 0.783572 24.5517 1.75124Z" fill="url(#paint2_linear_3577_34373)"/>
<path d="M45.6032 8.65185C45.6032 9.61952 44.8196 10.4031 43.8519 10.4031C42.8843 10.4031 42.1007 9.61952 42.1007 8.65185C42.1007 7.68419 42.8843 6.90062 43.8519 6.90062C44.8196 6.90062 45.6032 7.68419 45.6032 8.65185Z" fill="url(#paint3_linear_3577_34373)"/>
<path d="M0 8.65185C0 9.61952 0.783572 10.4031 1.75124 10.4031C2.7189 10.4031 3.50247 9.61952 3.50247 8.65185C3.50247 7.68419 2.7189 6.90062 1.75124 6.90062C0.783572 6.90062 0 7.68419 0 8.65185Z" fill="url(#paint4_linear_3577_34373)"/>
<defs>
<linearGradient id="paint0_linear_3577_34373" x1="45.6032" y1="15" x2="0" y2="15" gradientUnits="userSpaceOnUse">
<stop stop-color="#EAC648"/>
<stop offset="0.25" stop-color="#F0C11F"/>
<stop offset="0.5" stop-color="#FFE179"/>
<stop offset="0.75" stop-color="#F0C11F"/>
<stop offset="1" stop-color="#EAC648"/>
</linearGradient>
<linearGradient id="paint1_linear_3577_34373" x1="45.6032" y1="15" x2="0" y2="15" gradientUnits="userSpaceOnUse">
<stop stop-color="#EAC648"/>
<stop offset="0.25" stop-color="#F0C11F"/>
<stop offset="0.5" stop-color="#FFE179"/>
<stop offset="0.75" stop-color="#F0C11F"/>
<stop offset="1" stop-color="#EAC648"/>
</linearGradient>
<linearGradient id="paint2_linear_3577_34373" x1="45.6032" y1="15" x2="0" y2="15" gradientUnits="userSpaceOnUse">
<stop stop-color="#EAC648"/>
<stop offset="0.25" stop-color="#F0C11F"/>
<stop offset="0.5" stop-color="#FFE179"/>
<stop offset="0.75" stop-color="#F0C11F"/>
<stop offset="1" stop-color="#EAC648"/>
</linearGradient>
<linearGradient id="paint3_linear_3577_34373" x1="45.6032" y1="15" x2="0" y2="15" gradientUnits="userSpaceOnUse">
<stop stop-color="#EAC648"/>
<stop offset="0.25" stop-color="#F0C11F"/>
<stop offset="0.5" stop-color="#FFE179"/>
<stop offset="0.75" stop-color="#F0C11F"/>
<stop offset="1" stop-color="#EAC648"/>
</linearGradient>
<linearGradient id="paint4_linear_3577_34373" x1="45.6032" y1="15" x2="0" y2="15" gradientUnits="userSpaceOnUse">
<stop stop-color="#EAC648"/>
<stop offset="0.25" stop-color="#F0C11F"/>
<stop offset="0.5" stop-color="#FFE179"/>
<stop offset="0.75" stop-color="#F0C11F"/>
<stop offset="1" stop-color="#EAC648"/>
</linearGradient>
</defs>
</svg>
