<svg xmlns="http://www.w3.org/2000/svg" width="57" height="56" viewBox="0 0 57 56" fill="none"><g clip-path="url(#clip0_1820_18260)"><path d="M52.948 24.0101C52.8547 23.3568 52.388 22.9834 51.688 22.9834C49.8213 22.9601 47.978 22.9601 46.1113 22.9601C45.9947 22.9601 45.8547 22.9601 45.668 22.9601L45.038 22.8668L45.318 22.2834C45.318 22.2834 45.4347 22.0734 45.458 21.9568C45.5047 21.8634 45.5513 21.7701 45.598 21.6768L47.4413 17.8734C49.238 14.1401 51.0347 10.4068 52.808 6.67344C52.9947 6.27677 53.0647 5.85677 52.9947 5.6001C52.9013 5.3201 52.598 4.9701 52.318 4.8301C49.378 3.3601 46.3913 1.93677 43.568 0.606771C43.358 0.513437 43.148 0.443437 42.9613 0.443437C42.4013 0.443437 42.0747 0.910104 41.888 1.28344C41.2113 2.68344 40.5347 4.08344 39.8813 5.4601C39.2047 6.88344 38.528 8.28344 37.8513 9.68344C37.758 9.8701 37.6647 10.0101 37.548 10.2434L37.0813 11.2934L36.6847 10.2201C36.5913 9.96344 36.5447 9.82344 36.4747 9.6601C36.0547 8.44677 35.6813 7.25677 35.2847 6.0901C34.748 4.50344 34.2113 2.91677 33.698 1.3301C33.488 0.653437 33.1847 0.256771 32.7413 0.0234375H32.088C31.6213 0.256771 31.3413 0.653437 31.108 1.3301C30.5247 3.12677 29.9413 4.92344 29.3347 6.7201C28.938 7.9101 28.5413 9.1001 28.1447 10.2901C28.028 10.7568 27.958 11.1068 27.958 11.4334V22.9601H23.7347V22.0034C23.7347 19.3901 23.7347 16.7768 23.758 14.1868C23.758 13.8368 23.8747 13.4868 24.0613 13.1834C25.5547 11.1301 25.7647 9.07677 24.7147 6.9301C23.4547 4.3401 21.6813 2.1701 20.118 0.373437C20.0247 0.280104 19.8613 0.186771 19.698 0.0934375L19.5813 0.0234375H19.0213C18.8813 0.140104 18.7647 0.233437 18.648 0.326771C18.3913 0.536771 18.1347 0.723437 17.948 0.956771C16.3847 2.84677 14.728 4.9001 13.678 7.30344C12.838 9.28677 13.0713 11.1768 14.448 13.1134C14.6347 13.3701 14.8213 13.6501 14.8213 13.9768V22.9834H13.1647C12.3947 23.0068 11.9747 23.3568 11.858 24.1034C11.718 24.8968 11.6247 25.6201 11.6013 26.3201C11.5547 26.8801 11.3913 27.3468 11.088 27.8134C10.1313 29.2368 9.17468 30.6601 8.21801 32.0834C7.26135 33.5068 6.32801 34.9301 5.37135 36.3534C5.04468 36.8434 4.92801 37.2634 5.02135 37.5901C5.09135 37.9168 5.41801 38.2201 5.93135 38.4768C7.56468 39.3168 9.19801 40.1334 10.8547 40.9501C11.3213 41.1601 11.5547 41.5101 11.5547 42.0701C11.5547 43.7268 11.5547 45.4068 11.5547 47.0868C11.5547 49.8634 13.4913 51.8001 16.2913 51.8001H24.6447V52.2434L24.668 52.9668C24.6447 54.0401 24.668 54.6934 25.508 55.0901H46.088C46.6713 54.8334 46.9513 54.4134 47.0213 53.7368C47.488 49.0468 48.5613 44.3101 50.3113 39.2234C50.5913 38.4068 50.8947 37.5901 51.198 36.7501C51.618 35.7001 52.0147 34.6034 52.3647 33.4834C53.2747 30.5434 53.4847 27.3701 52.948 24.0334V24.0101ZM37.478 15.7968C38.5513 13.6268 39.6013 11.4334 40.6513 9.2401C41.4447 7.58344 42.2613 5.90344 43.0547 4.24677C43.1247 4.1301 43.1947 3.96677 43.2647 3.82677L43.3813 3.59344L43.5913 3.17344L44.0113 3.38344L46.928 4.78344L49.9147 6.2301L50.3347 6.4401L50.1247 6.8601C49.8213 7.44344 49.5647 8.00344 49.2847 8.58677L48.7013 9.8001L48.4913 10.2201L48.0713 10.0101C47.1147 9.54344 46.228 9.1001 45.2947 8.6801C45.038 8.56344 44.7813 8.49344 44.548 8.49344C44.1047 8.49344 43.7313 8.7501 43.5447 9.1701C43.2647 9.8001 43.5447 10.4534 44.2913 10.8034C45.2013 11.2468 46.1113 11.6901 47.0447 12.1334L47.488 12.3201L47.278 12.7634C46.788 13.7668 46.3213 14.7234 45.8547 15.7034L45.668 16.1001L45.248 15.9134C44.5947 15.6101 43.988 15.3301 43.358 15.0268L42.4247 14.5834C42.1913 14.4668 41.9347 14.4201 41.7247 14.4201C41.258 14.4201 40.9313 14.6301 40.7213 15.0501C40.5813 15.3301 40.558 15.6101 40.6513 15.8901C40.7447 16.2168 41.048 16.5201 41.4447 16.7068C42.3547 17.1501 43.288 17.5934 44.2213 18.0368L44.618 18.2234L44.4313 18.6434C43.8247 19.9734 43.218 21.2101 42.6113 22.4468C42.448 22.7034 42.098 22.9601 41.7947 22.9601H36.8947V22.2834C36.8947 22.2834 36.8713 22.0968 36.8713 22.0034V21.0234C36.8947 20.2301 36.8947 19.4134 36.848 18.5968C36.8013 17.6634 37.0113 16.7768 37.478 15.7968ZM30.968 9.21677C31.2947 8.2601 31.598 7.3501 31.9013 6.41677L31.9947 6.0901H32.6713L32.9047 6.39344C33.1147 7.02344 33.3247 7.65344 33.5347 8.28344L33.8613 9.21677L34.0713 9.82344H30.758L30.968 9.21677ZM30.338 12.2268H34.468V22.9368H30.338V12.2268ZM15.988 7.8401C16.8047 6.3701 17.7613 4.92344 18.9047 3.4301L19.278 2.9401L19.6513 3.4301L19.838 3.68677C21.0747 5.27344 22.218 6.76677 22.8713 8.65677C23.198 9.56677 23.0347 10.5934 22.4047 11.4801C21.6813 12.4834 20.4913 13.1368 19.278 13.1368C19.0913 13.1368 18.928 13.1134 18.7413 13.0901C17.5513 12.9034 16.478 12.1101 15.918 11.0134C15.4047 9.98677 15.428 8.8201 15.988 7.8401ZM21.378 15.3768V22.9368H17.2013V15.3768H21.378ZM50.6613 30.4501C50.4047 32.2701 49.7513 33.9501 49.1213 35.5834C48.888 36.1668 48.678 36.7501 48.468 37.3334C46.6713 42.4668 45.5047 47.1801 44.8747 51.8001C44.8747 51.9634 44.8047 52.1734 44.758 52.3601L44.6647 52.6868H27.0247V50.7501C27.0247 49.9101 26.558 49.4434 25.6947 49.4434H16.2913C14.798 49.4434 13.888 48.5334 13.888 47.0401V45.5234C13.888 43.9834 13.888 42.4434 13.9113 40.9268C13.9113 40.1101 13.6313 39.6668 12.908 39.3168C11.8347 38.8034 10.7613 38.2668 9.68801 37.7068L8.35801 37.0534L7.86801 36.7968L8.19468 36.3534C8.19468 36.3534 8.31135 36.1668 8.35801 36.0968L8.47468 35.9101C10.0847 33.4601 11.718 31.0101 13.3513 28.5834C13.7947 27.9768 13.958 27.4634 13.9113 26.8801C13.888 26.6468 13.9113 26.4134 13.958 26.1334C13.958 26.0168 13.9813 25.9001 13.9813 25.7834V25.3401H50.7313L50.778 25.7601C50.9413 27.1601 50.918 28.6301 50.6613 30.4501Z" fill="#098CE9"></path></g><defs><clipPath id="clip0_1820_18260"><rect width="48.2533" height="55.0667" fill="white" transform="translate(4.99805)"></rect></clipPath></defs></svg>