<svg xmlns="http://www.w3.org/2000/svg" width="57" height="56" viewBox="0 0 57 56" fill="none"><g clip-path="url(#clip0_1820_7840)"><g clip-path="url(#clip1_1820_7840)"><path d="M56.5718 2.94048C55.9885 1.16715 54.8685 0.327148 53.0251 0.327148H30.6485C28.6418 0.327148 27.1718 1.75048 27.1718 3.75715C27.1485 8.63382 27.1485 13.5338 27.1718 18.4105C27.1718 19.4605 27.5918 20.3472 28.4085 21.0471C29.1318 21.6538 29.9718 21.8172 30.9051 21.8172H52.9318C53.1418 21.8172 53.3285 21.8172 53.5385 21.7938C54.9851 21.6538 55.9418 20.8838 56.4785 19.5305C56.5251 19.3671 56.5951 19.2038 56.6651 19.0405V3.08048C56.6651 3.08048 56.5951 2.98715 56.5718 2.94048ZM33.9618 19.3905C34.0551 19.1805 34.1018 19.0405 34.1951 18.9005C36.1785 15.4705 38.1385 12.0171 40.1218 8.58715C40.5885 7.79382 40.9385 7.79382 41.3818 8.58715C43.3885 12.0171 45.3718 15.4472 47.3551 18.8771C47.4251 19.0172 47.4951 19.1572 47.6118 19.3905H33.9618ZM47.5185 14.3271C46.3518 12.3438 45.2085 10.3605 44.0418 8.33048C45.6985 7.16382 47.9851 7.65382 49.0351 9.40382C50.0851 11.1538 49.4085 13.4171 47.5185 14.3271ZM54.2618 18.1305C54.2618 19.0872 53.9351 19.4138 52.9785 19.4138C52.3018 19.4138 51.6251 19.3905 50.9485 19.4138C50.5985 19.4371 50.3885 19.3438 50.2018 19.0171C49.7585 18.1771 49.2451 17.3372 48.7318 16.4505C50.1318 15.6572 51.1118 14.5605 51.6251 13.0905C52.4185 10.7571 51.6718 8.19048 49.7585 6.62715C47.8918 5.08715 45.2785 4.83048 43.1551 6.04382C42.8051 6.23048 42.5718 6.23048 42.2451 6.02048C40.8218 5.15715 39.0718 5.64715 38.1851 7.14048C36.7385 9.59048 35.3151 12.0871 33.8918 14.5605C33.0518 16.0305 32.1885 17.4771 31.3485 18.9471C31.1851 19.2738 30.9985 19.4605 30.6018 19.4138C30.1585 19.3671 29.8085 19.2272 29.6685 18.8072C29.5751 18.5972 29.5751 18.3405 29.5751 18.1072C29.5518 13.4172 29.5518 8.72715 29.5518 4.06048C29.5518 3.05715 29.8785 2.73048 30.8585 2.73048H52.9551C53.9585 2.73048 54.2618 3.03382 54.2618 4.03715V18.1305Z" fill="#098CE9"></path><path d="M53.0732 25.7129H31.0466C28.9232 25.7362 27.4766 27.1829 27.4766 29.2829V51.3796C27.4766 53.4562 28.9232 54.9029 31.0232 54.9262H53.0966C54.8699 54.9262 56.0599 54.0162 56.5732 52.3129C56.5732 52.2429 56.6432 52.1496 56.6666 52.0796V28.5596C55.8732 26.5062 54.8932 25.7129 53.0732 25.7129ZM54.2632 51.1462C54.2632 52.2196 53.9599 52.5229 52.8866 52.5229H31.2332C30.1832 52.5229 29.8799 52.1962 29.8799 51.1462V29.4929C29.8799 28.4429 30.1832 28.1162 31.2566 28.1162H52.9099C53.9599 28.1162 54.2632 28.4429 54.2632 29.5162V51.1462Z" fill="#098CE9"></path><path d="M23.2993 3.36C23.2993 1.49333 21.8293 0.0233333 19.986 0C14.6427 0 9.32268 0 4.00268 0.0233333C2.71935 0.0233333 1.73935 0.63 1.10935 1.75C0.922682 2.1 0.806016 2.47333 0.666016 2.84667V25.1767C1.62268 27.44 2.39268 27.93 4.88935 27.93H9.32268C12.7993 27.93 16.2527 27.9533 19.706 27.93C21.8293 27.93 23.2993 26.5533 23.3227 24.57C23.3227 17.5 23.3227 10.43 23.2993 3.36ZM20.9193 24.2433C20.9193 25.2233 20.5927 25.5267 19.636 25.5267H4.37602C3.37268 25.5267 3.06935 25.2 3.06935 24.22V3.71C3.06935 2.73 3.39602 2.40333 4.37602 2.40333H19.636C20.5927 2.40333 20.9193 2.73 20.9193 3.68667V24.2433Z" fill="#098CE9"></path><path d="M23.976 36.0729C24.0227 33.5062 22.1793 31.4062 19.3327 31.4529C14.666 31.5229 9.99935 31.4529 5.33268 31.4529C5.09935 31.4529 4.86602 31.4529 4.63268 31.4529C2.81268 31.5929 1.34268 32.7829 0.852682 34.5329C0.782682 34.7429 0.736016 34.9762 0.666016 35.2096V48.2296C0.666016 48.2296 0.736016 48.2996 0.736016 48.3696C1.24935 50.7029 2.78935 51.9396 5.19268 51.9396C6.84935 51.9396 8.50602 51.9396 10.1627 51.9629C10.4193 51.9629 10.7227 52.0796 10.9327 52.2429C11.726 52.8962 12.4727 53.5962 13.2427 54.2729C13.966 54.9029 14.806 55.0896 15.7393 54.7162C16.6727 54.3429 17.1627 53.6196 17.256 52.6396C17.2793 52.4296 17.2793 52.1962 17.3027 51.9396C18.0493 51.9396 18.7493 51.9629 19.4493 51.9396C19.776 51.9396 20.1027 51.9396 20.4293 51.8929C22.5527 51.4962 23.9527 49.7929 23.9527 47.5762C23.9527 43.7496 23.906 39.8996 23.976 36.0496V36.0729ZM21.5493 47.5529C21.5493 48.8362 20.826 49.5596 19.5427 49.5596H17.466C15.8793 49.5829 14.9227 50.4929 14.8527 52.0796C14.8527 52.1729 14.8527 52.2662 14.8293 52.4762C13.9893 51.7529 13.2193 51.0996 12.496 50.4229C11.8427 49.8162 11.1193 49.5362 10.2327 49.5596C8.50602 49.5829 6.80268 49.5596 5.09935 49.5596C3.81602 49.5596 3.09268 48.8362 3.09268 47.5529V35.8629C3.09268 34.6262 3.81602 33.8796 5.05268 33.8796C9.88268 33.8562 14.736 33.8562 19.5893 33.8796C20.826 33.8796 21.5493 34.6262 21.5493 35.8629V47.5529Z" fill="#098CE9"></path><path d="M45.8867 34.4638C44.4633 33.5538 42.97 32.6671 41.4533 31.8971C39.4 30.8471 36.9733 32.3404 36.8567 34.6271C36.81 35.4438 36.8567 36.2838 36.8567 37.1004C36.8567 37.9638 36.81 38.8038 36.8567 39.6671C36.9733 41.8838 39.3533 43.3771 41.3367 42.3971C42.9467 41.6038 44.4867 40.6938 45.98 39.7138C47.8233 38.4538 47.7767 35.6771 45.8867 34.4638ZM44.3233 37.9404C43.0867 38.6638 41.8733 39.3638 40.6367 40.0638C39.8433 40.5071 39.26 40.1571 39.2367 39.2704V34.9304C39.2367 34.3471 39.5633 33.9971 40.17 33.9971C40.2633 34.0204 40.45 34.0671 40.6133 34.1838C41.85 34.8838 43.0867 35.5838 44.3233 36.3071C45.1167 36.7738 45.1167 37.4738 44.3233 37.9404Z" fill="#098CE9"></path><path d="M51.463 47.6463C51.463 48.2529 51.043 48.7429 50.4364 48.8129C49.8997 48.8596 49.363 48.8129 48.803 48.8129H38.5364C38.233 48.8129 38.0464 48.8363 37.9064 49.1629C37.7197 49.6063 37.323 49.8396 36.8564 49.8163C36.3897 49.8163 35.9697 49.6063 35.8064 49.1629C35.6664 48.8363 35.4564 48.8129 35.1764 48.8129C34.7097 48.8129 34.2197 48.8363 33.753 48.8129C33.0997 48.7429 32.6797 48.2763 32.6797 47.6463C32.6797 47.0163 33.0764 46.5263 33.7297 46.4563C34.1964 46.4096 34.663 46.4329 35.153 46.4329C35.4564 46.4563 35.643 46.3629 35.8064 46.0596C36.273 45.1963 37.4397 45.1963 37.883 46.0596C38.0697 46.4096 38.303 46.4329 38.6064 46.4329H49.8064C50.0397 46.4329 50.2497 46.4329 50.4597 46.4563C51.0664 46.5729 51.4864 47.0629 51.463 47.6463Z" fill="#098CE9"></path><path d="M17.6763 11.62C17.4429 12.0866 17.0229 12.32 16.5329 12.32C13.4996 12.32 10.4663 12.32 7.45625 12.2966C6.66292 12.2966 6.19625 11.7833 6.21959 11.06C6.24292 10.3833 6.73292 9.93995 7.50292 9.91662C8.99625 9.89329 10.4896 9.91662 11.9829 9.91662C13.4763 9.91662 14.9929 9.89329 16.5096 9.91662C17.4896 9.93995 18.0496 10.8033 17.6763 11.62Z" fill="#098CE9"></path><path d="M17.7688 16.1234C17.7688 16.8467 17.2321 17.2901 16.4154 17.3134H7.61875C6.75542 17.2901 6.21875 16.8467 6.21875 16.1001C6.21875 15.3534 6.75542 14.9101 7.59542 14.9101C10.5354 14.8867 13.4754 14.8867 16.4154 14.9101C17.2554 14.9101 17.7921 15.4001 17.7688 16.1234Z" fill="#098CE9"></path><path d="M17.7688 21.07C17.7921 21.8167 17.2554 22.3067 16.4154 22.3067H7.59542C6.75542 22.3067 6.21875 21.84 6.21875 21.0933C6.21875 20.3467 6.75542 19.9033 7.61875 19.9033H16.4154C17.2321 19.9033 17.7688 20.37 17.7688 21.07Z" fill="#098CE9"></path><path d="M15.5522 6.08952C15.5755 6.81285 15.0389 7.30285 14.1989 7.32619H9.83555C8.99555 7.32619 8.43555 6.83619 8.43555 6.13619C8.43555 5.43619 8.97221 4.92285 9.81221 4.92285H14.1755C15.0155 4.92285 15.5289 5.36618 15.5522 6.08952Z" fill="#098CE9"></path><path d="M8.27334 41.3463C8.29668 41.9996 7.73668 42.5596 7.06001 42.5596C6.38334 42.5596 5.87001 42.0229 5.89334 41.3229C5.89334 40.6696 6.45334 40.1562 7.08334 40.1562C7.73668 40.1796 8.27334 40.7163 8.27334 41.3463Z" fill="#098CE9"></path><path d="M13.5225 41.3463C13.5225 41.9996 12.9858 42.5596 12.3091 42.5596C11.6325 42.5596 11.1191 42.0229 11.1191 41.3229C11.1425 40.6929 11.6791 40.1562 12.3325 40.1562C12.9858 40.1796 13.4991 40.6929 13.5225 41.3463Z" fill="#098CE9"></path><path d="M18.7491 41.3229C18.7725 41.9996 18.2358 42.5596 17.5591 42.5596C16.8825 42.5596 16.3691 42.0229 16.3691 41.3463C16.3691 40.6696 16.9058 40.1562 17.5591 40.1562C18.2125 40.1562 18.7491 40.6929 18.7491 41.3229Z" fill="#098CE9"></path></g></g><defs><clipPath id="clip0_1820_7840"><rect width="56" height="56" fill="white" transform="translate(0.666016)"></rect></clipPath><clipPath id="clip1_1820_7840"><rect width="56" height="54.9267" fill="white" transform="translate(0.666016)"></rect></clipPath></defs></svg>