<svg xmlns="http://www.w3.org/2000/svg" width="56" height="56" viewBox="0 0 56 56" fill="none"><path d="M55.0433 51.5673C55.0433 51.5673 54.9967 51.4507 54.9733 51.3807C54.53 47.5307 52.78 44.3806 49.77 42.0007C49.07 41.4407 48.3 40.974 47.5533 40.5307C47.2267 40.344 46.9 40.134 46.5733 39.9473C46.4567 39.8773 46.3867 39.7373 46.3633 39.5973C46.34 39.4806 46.3867 39.3406 46.48 39.224C47.9967 37.6373 48.7667 35.7007 48.72 33.6707C48.65 31.6873 47.7633 29.6573 46.3867 28.374C44.9633 27.0207 43.0967 26.2973 41.16 26.2973C39.4567 26.2973 37.8467 26.8573 36.4933 27.9307C35.0467 29.074 34.1367 30.5673 33.81 32.364C33.32 34.9773 34.0667 37.3107 36.0033 39.294C36.12 39.4107 36.1667 39.5507 36.1433 39.714C36.0967 39.854 36.0033 39.994 35.8633 40.0406C33.74 40.974 31.99 42.2807 30.52 43.984C30.4267 44.0773 30.31 44.1473 30.17 44.1473H30.1467C30.0067 44.1473 29.8667 44.054 29.7733 43.9373C28.77 42.4673 27.6733 41.254 26.39 40.2273C25.13 39.224 23.6833 38.384 22.05 37.7306C21.91 37.6607 21.8167 37.5207 21.77 37.3807C21.7467 37.2173 21.77 37.054 21.9333 36.9373C23.8 35.234 24.8733 32.9707 24.92 30.544C24.99 28.164 24.1033 25.854 22.4933 24.2207C20.8133 22.5173 18.5733 21.584 16.2167 21.584C14.2333 21.584 12.3667 22.2373 10.85 23.474C9.07667 24.8507 8.02667 26.6473 7.67667 28.7707C7.16333 31.8973 8.12 34.6273 10.57 36.914C10.6633 37.0307 10.71 37.1706 10.71 37.3106C10.71 37.4507 10.6167 37.5673 10.5 37.6606C10.43 37.7073 10.3367 37.754 10.2433 37.7773L10.15 37.824L10.0333 37.8706C5.08667 40.064 1.86667 43.7973 0.466667 48.9773C0.326667 49.5373 0.233333 50.144 0.14 50.704C0.0933333 51.0073 0.0466667 51.334 0 51.6373V53.1773C0.303333 53.8073 0.793333 54.064 1.68 54.064C10.29 54.064 18.9233 54.0406 27.5567 54.0406C36.19 54.0406 44.8 54.064 53.41 54.064C54.2733 54.064 54.7633 53.8073 55.0667 53.2006V51.6606C55.0667 51.6606 55.0433 51.614 55.0433 51.5673ZM10.1267 30.3106C10.1267 28.6773 10.7333 27.1373 11.8767 25.994C13.02 24.8273 14.56 24.174 16.1933 24.174H16.24C19.6 24.174 22.3533 26.904 22.3533 30.264C22.3533 33.624 19.6467 36.3773 16.2167 36.4007C12.8567 36.4007 10.1267 33.6707 10.1267 30.3106ZM29.8433 51.5206C29.8433 51.5206 29.6333 51.6606 29.4933 51.6606H2.94C2.8 51.6606 2.68333 51.614 2.59 51.4973C2.49667 51.404 2.47333 51.264 2.47333 51.1473C3.12667 45.174 8.44667 39.014 16.2167 39.014C16.6133 39.014 17.0333 39.014 17.4767 39.0606C24.78 39.6906 29.5633 45.7107 29.96 51.1707C29.96 51.2873 29.9133 51.4273 29.8433 51.5206ZM36.0267 33.7873C36.0267 30.9173 38.29 28.654 41.1833 28.654C42.6067 28.654 43.89 29.1907 44.87 30.1707C45.85 31.174 46.3867 32.4573 46.3633 33.834C46.3633 36.6807 44.03 38.9906 41.1833 38.9906H41.1367C39.76 38.9673 38.4767 38.4306 37.4967 37.4506C36.54 36.4706 36.0033 35.164 36.0267 33.7873ZM52.5 51.404C52.4067 51.5673 52.2667 51.6606 52.08 51.6606H32.8767C32.6433 51.6606 32.4567 51.4973 32.41 51.264L32.3633 50.9373C32.34 50.774 32.3167 50.5873 32.2933 50.4007C32.1767 49.9107 32.0367 49.4206 31.92 48.9073C31.78 48.4173 31.6633 47.904 31.5467 47.414C31.5 47.2507 31.4067 46.7373 31.6867 46.364C33.6 43.3307 37.3567 41.3473 41.23 41.3473C42.07 41.3473 42.8867 41.4407 43.6567 41.604C48.2767 42.654 51.94 46.5273 52.57 51.054C52.57 51.1473 52.5467 51.3107 52.5 51.404Z" fill="#098CE9"></path><path d="M42.3509 13.3235C42.3509 11.2702 40.9042 9.82354 38.8509 9.80021H37.7309C37.4742 9.80021 37.2642 9.59021 37.2642 9.33354V7.65354C37.2642 6.58021 37.2876 5.50687 37.2642 4.45687C37.2409 1.82021 35.4676 0.046875 32.8309 0.046875H19.5309C16.8942 0.046875 15.0976 1.82021 15.0742 4.48021V16.5202C15.0742 17.3835 15.4942 17.9202 16.1476 17.9202C16.4276 17.9202 16.7542 17.8269 17.0576 17.6635C18.5742 16.7769 20.0909 15.9135 21.6076 15.0502C21.8176 14.8869 22.0742 14.7702 22.3309 14.7469H25.1309C25.3876 14.7469 25.5976 14.9569 25.5976 15.2135V17.5235C25.6209 19.6702 27.0676 21.1169 29.1909 21.1169H36.2376C36.6809 21.1169 37.0309 21.2569 37.3342 21.3969C37.8476 21.7002 38.3609 22.0035 38.8976 22.3069C39.3876 22.5869 39.9009 22.8902 40.4376 23.1935C40.7176 23.3569 40.9976 23.4269 41.2542 23.4269C41.9309 23.4269 42.3509 22.8902 42.3742 22.0735C42.3742 19.1569 42.3742 16.2402 42.3509 13.3235ZM22.1909 12.4135C21.7942 12.4135 21.3509 12.5302 20.8609 12.7869C20.2076 13.1135 19.5776 13.4635 18.9009 13.8602L18.1309 14.3035C18.1309 14.3035 17.9676 14.3735 17.8976 14.3735C17.8276 14.3735 17.7342 14.3502 17.6642 14.3035C17.5242 14.2335 17.4309 14.0702 17.4309 13.9069V4.43354C17.4309 3.17354 18.2009 2.40354 19.4376 2.40354C21.6776 2.38021 23.9176 2.38021 26.1576 2.38021C28.3976 2.38021 30.6609 2.38021 32.9009 2.40354C34.1376 2.40354 34.9076 3.17354 34.9076 4.43354C34.9309 6.37021 34.9309 8.33021 34.9076 10.2669C34.9076 11.6202 34.1376 12.3902 32.7842 12.3902H27.4876C25.7142 12.3902 23.9642 12.3902 22.1909 12.4135ZM40.0175 19.3669C40.0175 19.5069 39.9475 19.6469 39.8309 19.7402C39.7376 19.8102 39.6442 19.8335 39.5509 19.8335C39.5042 19.8335 39.4576 19.8335 39.4109 19.8335C39.3176 19.8102 39.0609 19.7169 38.9909 19.6469C38.0342 18.8769 36.8909 18.7835 35.8409 18.7835H35.3042C34.6276 18.8069 33.9509 18.8069 33.2976 18.8069C32.6442 18.8069 31.9676 18.8069 31.2909 18.7835H29.2842C28.3276 18.7835 27.9542 18.4102 27.9542 17.4535V15.2369C27.9542 14.9802 28.1642 14.7702 28.4209 14.7702H30.4276C31.4542 14.7702 32.5276 14.7469 33.5542 14.6769C34.8142 14.6069 35.8176 13.9769 36.5642 12.8102C36.8442 12.3902 37.1942 12.1802 37.6375 12.1802H38.8742C39.5509 12.1802 40.0175 12.6235 40.0175 13.2769V19.3902V19.3669Z" fill="#098CE9"></path></svg>