<svg xmlns="http://www.w3.org/2000/svg" width="16" height="17" viewBox="0 0 16 17" fill="none"><g clip-path="url(#clip0_1347_26491)"><path d="M6.034 11.6667C6.45484 12.0791 7.03122 12.3334 7.66699 12.3334C8.30276 12.3334 8.87914 12.0791 9.29999 11.6667M6.034 11.6667C5.60181 11.2432 5.33366 10.653 5.33366 10.0001C5.33366 8.7114 6.37833 7.66673 7.66699 7.66673C8.95566 7.66673 10.0003 8.7114 10.0003 10.0001C10.0003 10.653 9.73217 11.2432 9.29999 11.6667M6.034 11.6667L6.01716 13.6667M9.29999 11.6667L9.31682 13.6667M6.01716 13.6667L6.00033 15.6667L7.66699 14.6667L9.33366 15.6667L9.31682 13.6667M6.01716 13.6667H3.33366V5.66673M3.33366 5.66673H0.666992V3.00006C0.666992 3.00006 0.92201 2.07838 1.33366 1.66673C1.74531 1.25508 2.66699 1.00006 2.66699 1.00006H10.667M3.33366 5.66673H9.33366V3.00006C9.33366 3.00006 9.40664 2.39059 9.66699 2.00006C9.92734 1.60954 10.667 1.00006 10.667 1.00006M12.667 13.6667H9.31682M12.667 13.6667H14.0003L15.0003 13.3334L15.3337 12.3334V9.66673H12.667M12.667 13.6667V9.66673M12.667 9.66673V1.00006H10.667" stroke="#098CE9" stroke-width="1.5" stroke-linejoin="round"></path></g><defs><clipPath id="clip0_1347_26491"><rect width="16" height="16" fill="white" transform="translate(0 0.333374)"></rect></clipPath></defs></svg>