<svg width="50" height="50" viewBox="0 0 50 50" fill="none" xmlns="http://www.w3.org/2000/svg">
<path d="M25.4688 39.0668L12.9727 32.3897V24.8325L25.4684 31.3108L31.2655 28.2538L32.9004 27.3283L35.4185 25.9473C36.116 25.5647 36.9414 25.5782 37.6258 25.9836C38.3105 26.3889 38.719 27.1059 38.719 27.9015V28.9545C38.719 30.8058 37.7118 32.5104 36.0901 33.4036L34.1148 34.508L25.4684 39.0672L25.4688 39.0668ZM13.9623 31.7966L25.472 37.9464L33.6485 33.6352L35.6106 32.5379C36.9191 31.8173 37.7302 30.4447 37.7302 28.9541V27.9011C37.7302 27.4587 37.503 27.0601 37.1224 26.8349C36.7417 26.6097 36.283 26.6021 35.8952 26.8146L33.3831 28.1924L31.7346 29.1254L25.4732 32.4271L13.9631 26.4599V31.7962L13.9623 31.7966Z" fill="#1C1C1B"/>
<path d="M25.47 36.3778L15.8045 31.2658V30.7063L25.4704 35.8182L35.3037 30.6301V31.1718L25.47 36.3778Z" fill="#1C1C1B"/>
<path d="M25.4704 34.3401L15.8045 29.2201V28.6602L25.4704 33.7805L35.3037 28.5789V29.142L25.4704 34.3401Z" fill="#1C1C1B"/>
<path d="M34.8256 38.6832L33.5737 37.9188L32.3218 40.0005V32.4166L34.8256 31.0994V38.6832Z" fill="#1C1C1B"/>
<path d="M25.4706 11L42.9407 19.9768L25.4706 28.9537L8 19.9768L25.4706 11Z" fill="#1C1C1B"/>
<rect x="2.5" y="2.5" width="45" height="45" rx="22.5" stroke="#098CE9" stroke-width="5"/>
</svg>
