<svg xmlns="http://www.w3.org/2000/svg" width="20" height="20" viewBox="0 0 20 20" fill="none"><path d="M11.8612 5.78746C11.8509 6.39072 11.8591 6.99344 11.8591 7.61792C11.945 7.62173 12.0163 7.62825 12.0881 7.62825C12.7936 7.6288 13.4997 7.62771 14.2057 7.6288C14.6333 7.62989 14.7388 7.73487 14.7394 8.15482C14.7405 8.96261 14.741 9.77041 14.7394 10.5782C14.7383 10.9525 14.6453 11.0471 14.2688 11.0487C13.5492 11.052 12.83 11.0498 12.1104 11.0498H11.8602V17.6765C11.8602 18.2754 11.8014 18.333 11.1927 18.333C10.4186 18.333 9.64511 18.3336 8.87158 18.3325C8.44184 18.3319 8.3423 18.2335 8.34175 17.807C8.34121 15.6556 8.34175 13.5037 8.34175 11.3517V11.0874C8.25907 11.0825 8.18781 11.0748 8.11655 11.0748C7.52634 11.0738 6.93559 11.0754 6.34539 11.0738C5.93578 11.0721 5.83677 10.9769 5.83569 10.5711C5.83242 9.77694 5.83297 8.98274 5.83514 8.18854C5.83623 7.76642 5.93306 7.67177 6.35028 7.67123C6.93396 7.67069 7.51764 7.67123 8.10132 7.67123H8.34175C8.34175 7.57059 8.34067 7.49118 8.34175 7.41176C8.3559 6.63823 8.32815 5.86144 8.39343 5.09281C8.5588 3.15791 10.0466 1.75719 11.9907 1.6843C12.8039 1.65384 13.6188 1.67124 14.4337 1.67342C14.7029 1.67451 14.8183 1.79092 14.8199 2.06181C14.8242 2.86961 14.8242 3.6774 14.8199 4.4852C14.8183 4.7599 14.7051 4.8687 14.4103 4.87577C13.8609 4.88882 13.3109 4.88937 12.7615 4.89753C12.124 4.90732 11.8727 5.1483 11.8612 5.78746Z" fill="#216BF6"></path></svg>