<svg xmlns="http://www.w3.org/2000/svg" width="16" height="17" viewBox="0 0 16 17" fill="none"><path d="M9.33317 1.83331H3.99984C3.64622 1.83331 3.30708 1.97379 3.05703 2.22384C2.80698 2.47389 2.6665 2.81302 2.6665 3.16665V13.8333C2.6665 14.1869 2.80698 14.5261 3.05703 14.7761C3.30708 15.0262 3.64622 15.1666 3.99984 15.1666H11.9998C12.3535 15.1666 12.6926 15.0262 12.9426 14.7761C13.1927 14.5261 13.3332 14.1869 13.3332 13.8333V5.83331L9.33317 1.83331Z" stroke="#098CE9" stroke-width="1.5" stroke-linecap="round" stroke-linejoin="round"></path><path d="M9.3335 1.83331V5.83331H13.3335" stroke="#098CE9" stroke-width="1.5" stroke-linecap="round" stroke-linejoin="round"></path><path d="M10.6668 9.16669H5.3335" stroke="#098CE9" stroke-width="1.5" stroke-linecap="round" stroke-linejoin="round"></path><path d="M10.6668 11.8333H5.3335" stroke="#098CE9" stroke-width="1.5" stroke-linecap="round" stroke-linejoin="round"></path><path d="M6.66683 6.5H6.00016H5.3335" stroke="#098CE9" stroke-width="1.5" stroke-linecap="round" stroke-linejoin="round"></path></svg>