<svg xmlns="http://www.w3.org/2000/svg" width="20" height="20" viewBox="0 0 20 20" fill="none"><path d="M18.3299 6.30963C18.3185 4.51331 17.5176 3.15028 15.9679 2.24295C15.2859 1.8435 14.5323 1.67067 13.7419 1.67027C11.247 1.66823 8.75203 1.66211 6.25708 1.6719C4.22639 1.67964 2.52993 2.91917 1.88755 4.85489C1.79298 5.14021 1.75834 5.44591 1.69638 5.74224C1.68538 5.79482 1.67641 5.84781 1.66663 5.90039V14.1022C1.71146 14.3517 1.73592 14.6068 1.80399 14.8498C2.32083 16.6946 3.5196 17.8277 5.38847 18.25C5.556 18.2879 5.72841 18.3059 5.89838 18.3332H14.1018C14.3517 18.2883 14.6069 18.2639 14.8502 18.1958C16.693 17.6798 17.8294 16.4831 18.2452 14.6162C18.312 14.3174 18.3291 14.0028 18.3299 13.6954C18.3365 11.2335 18.3454 8.77157 18.3299 6.30963ZM10.0075 14.5685C7.49824 14.5828 5.43086 12.5187 5.43208 10.0005C5.43331 7.48476 7.46685 5.44836 9.99278 5.43409C12.502 5.41983 14.5694 7.48353 14.5681 10.0017C14.5669 12.5175 12.5334 14.5539 10.0075 14.5685ZM14.8437 6.54645C14.0896 6.544 13.4554 5.90895 13.4558 5.15651C13.4558 4.40163 14.088 3.77229 14.8457 3.7731C15.6075 3.77351 16.2316 4.39837 16.2295 5.15896C16.2279 5.91711 15.5969 6.54889 14.8437 6.54645Z" fill="url(#paint0_linear_47_2273)"></path><path d="M13.5838 10.0092C13.5772 11.991 11.9599 13.5973 9.98461 13.5843C8.0061 13.5712 6.40991 11.9653 6.41644 9.99369C6.42296 8.01232 8.04074 6.40514 10.016 6.41859C11.9945 6.43163 13.5903 8.0376 13.5838 10.0092Z" fill="url(#paint1_linear_47_2273)"></path><path d="M15.2448 5.15537C15.2456 5.37466 15.0601 5.56134 14.8433 5.56012C14.6285 5.5589 14.4389 5.36569 14.4422 5.15129C14.4459 4.94056 14.6269 4.7604 14.8388 4.75754C15.061 4.75469 15.244 4.93404 15.2448 5.15537Z" fill="url(#paint2_linear_47_2273)"></path><defs><linearGradient id="paint0_linear_47_2273" x1="1.99988" y1="2" x2="17.9999" y2="18" gradientUnits="userSpaceOnUse"><stop offset="0.075" stop-color="#5641CF"></stop><stop offset="0.38234" stop-color="#BA00BE"></stop><stop offset="0.630973" stop-color="#EA3453"></stop><stop offset="1" stop-color="#FFB83B"></stop></linearGradient><linearGradient id="paint1_linear_47_2273" x1="1.99988" y1="2" x2="17.9999" y2="18" gradientUnits="userSpaceOnUse"><stop offset="0.075" stop-color="#5641CF"></stop><stop offset="0.38234" stop-color="#BA00BE"></stop><stop offset="0.630973" stop-color="#EA3453"></stop><stop offset="1" stop-color="#FFB83B"></stop></linearGradient><linearGradient id="paint2_linear_47_2273" x1="1.99988" y1="2" x2="17.9999" y2="18" gradientUnits="userSpaceOnUse"><stop offset="0.075" stop-color="#5641CF"></stop><stop offset="0.38234" stop-color="#BA00BE"></stop><stop offset="0.630973" stop-color="#EA3453"></stop><stop offset="1" stop-color="#FFB83B"></stop></linearGradient></defs></svg>