<svg xmlns="http://www.w3.org/2000/svg" width="16" height="17" viewBox="0 0 16 17" fill="none"><g clip-path="url(#clip0_1347_26487)"><path d="M7.99967 15C11.6816 15 14.6663 12.0153 14.6663 8.33335C14.6663 4.65146 11.6816 1.66669 7.99967 1.66669C4.31778 1.66669 1.33301 4.65146 1.33301 8.33335C1.33301 12.0153 4.31778 15 7.99967 15Z" stroke="#098CE9" stroke-width="1.5" stroke-linecap="round" stroke-linejoin="round"></path><path d="M1.33301 8.33337H14.6663" stroke="#098CE9" stroke-width="1.5" stroke-linecap="round" stroke-linejoin="round"></path><path d="M7.99967 1.66669C9.66719 3.49226 10.6148 5.86138 10.6663 8.33335C10.6148 10.8053 9.66719 13.1745 7.99967 15C6.33215 13.1745 5.38451 10.8053 5.33301 8.33335C5.38451 5.86138 6.33215 3.49226 7.99967 1.66669Z" stroke="#098CE9" stroke-width="1.5" stroke-linecap="round" stroke-linejoin="round"></path></g><defs><clipPath id="clip0_1347_26487"><rect width="16" height="16" fill="white" transform="translate(0 0.333374)"></rect></clipPath></defs></svg>