<svg xmlns="http://www.w3.org/2000/svg" width="21" height="21" viewBox="0 0 21 21" fill="none"><path d="M18.8286 19.2814H15.3791C15.3778 17.3458 15.3817 15.4102 15.3713 13.4746C15.3695 13.1133 15.3326 12.7489 15.2761 12.3915C15.1361 11.5077 14.6574 11.0129 13.823 10.9355C12.6874 10.8303 11.8713 11.2829 11.6366 12.4768C11.5505 12.9146 11.5174 13.3689 11.514 13.8163C11.5 15.638 11.507 17.4597 11.5061 19.2814H8.05664C8.05708 15.6484 8.05751 12.0155 8.05838 8.3825V8.1638H11.3727V9.70595C11.424 9.64682 11.447 9.62725 11.4614 9.60291C12.0474 8.63119 12.9313 8.10163 14.0287 7.93207C14.8691 7.80207 15.7069 7.8712 16.5134 8.16076C17.5738 8.54162 18.1869 9.33117 18.5051 10.3812C18.7382 11.1511 18.8173 11.9437 18.8212 12.742C18.8325 14.9219 18.8273 17.1015 18.8286 19.2814Z" fill="#0078B7"></path><path d="M5.90789 19.2812H2.42578C2.43013 19.206 2.43839 19.1304 2.43839 19.0551C2.43882 15.5026 2.43882 11.9501 2.43882 8.39797V8.16406H5.89745V8.38101C5.89745 11.9388 5.89745 15.4965 5.89789 19.0547C5.89789 19.1299 5.90441 19.2056 5.90789 19.2812Z" fill="#0078B7"></path><path d="M6.16811 4.62209C6.16681 5.6312 5.37508 6.53031 4.40684 6.62205C3.33947 6.72335 2.40297 6.03554 2.20167 5.00382C2.1921 4.95643 2.17775 4.90991 2.16602 4.86339V4.37514C2.17775 4.32861 2.1921 4.28209 2.20123 4.23514C2.39775 3.23429 3.35121 2.52039 4.35336 2.6243C5.38682 2.73169 6.16898 3.59254 6.16811 4.62209Z" fill="#0078B7"></path></svg>