<svg xmlns="http://www.w3.org/2000/svg" width="125" height="26" viewBox="0 0 125 26" fill="none"><path d="M0.16 25.5V0.299998H16.216V5.7H5.56V9.3H13.768V14.7H5.56V20.1H16.216V25.5H0.16ZM20.1639 25.5V0.299998H28.5159C30.2559 0.299998 31.8819 0.629999 33.3939 1.29C34.9179 1.938 36.2559 2.844 37.4079 4.008C38.5719 5.16 39.4779 6.498 40.1259 8.022C40.7859 9.534 41.1159 11.16 41.1159 12.9C41.1159 14.64 40.7859 16.272 40.1259 17.796C39.4779 19.308 38.5719 20.646 37.4079 21.81C36.2559 22.962 34.9179 23.868 33.3939 24.528C31.8819 25.176 30.2559 25.5 28.5159 25.5H20.1639ZM25.5639 20.1H28.5159C29.4879 20.1 30.4059 19.914 31.2699 19.542C32.1339 19.17 32.9019 18.654 33.5739 17.994C34.2459 17.334 34.7679 16.572 35.1399 15.708C35.5239 14.832 35.7159 13.896 35.7159 12.9C35.7159 11.904 35.5239 10.974 35.1399 10.11C34.7679 9.246 34.2459 8.484 33.5739 7.824C32.9139 7.152 32.1519 6.63 31.2879 6.258C30.4239 5.886 29.4999 5.7 28.5159 5.7H25.5639V20.1ZM54.2247 25.968C52.2087 25.968 50.4267 25.476 48.8787 24.492C47.3427 23.508 46.1367 22.188 45.2607 20.532C44.3967 18.864 43.9647 17.016 43.9647 14.988V0.299998H49.3647V14.988C49.3647 16.008 49.5567 16.944 49.9407 17.796C50.3247 18.636 50.8767 19.308 51.5967 19.812C52.3287 20.316 53.2047 20.568 54.2247 20.568C55.2567 20.568 56.1327 20.322 56.8527 19.83C57.5727 19.326 58.1187 18.654 58.4907 17.814C58.8627 16.962 59.0487 16.02 59.0487 14.988V0.299998H64.4487V14.988C64.4487 16.512 64.2027 17.94 63.7107 19.272C63.2187 20.592 62.5167 21.756 61.6047 22.764C60.6927 23.772 59.6127 24.558 58.3647 25.122C57.1167 25.686 55.7367 25.968 54.2247 25.968ZM68.2577 25.5L73.1537 0.299998H77.7617L83.4137 15.168L89.0657 0.299998H93.6737L98.5697 25.5H93.0617L90.4337 11.892L85.2857 25.5H81.5417L76.3937 11.892L73.7657 25.5H68.2577ZM109.166 0.299998H115.25L124.394 25.5H118.67L117.23 21.54H107.186L105.746 25.5H100.022L109.166 0.299998ZM109.166 16.14H115.25L112.19 7.788L109.166 16.14Z" fill="#098CE9"></path></svg>