<svg xmlns="http://www.w3.org/2000/svg" width="33" height="32" viewBox="0 0 33 32" fill="none"><g clip-path="url(#clip0_1417_10)"><path d="M12.7341 22.6666C13.5758 23.4914 14.7286 24 16.0001 24C17.2717 24 18.4244 23.4914 19.2661 22.6666M12.7341 22.6666C11.8698 21.8196 11.3335 20.6391 11.3335 19.3333C11.3335 16.756 13.4228 14.6666 16.0001 14.6666C18.5774 14.6666 20.6668 16.756 20.6668 19.3333C20.6668 20.6391 20.1305 21.8196 19.2661 22.6666M12.7341 22.6666L12.7005 26.6666M19.2661 22.6666L19.2998 26.6666M12.7005 26.6666L12.6668 30.6666L16.0001 28.6666L19.3335 30.6666L19.2998 26.6666M12.7005 26.6666H7.33346V10.6666M7.33346 10.6666H2.00012V5.33331C2.00012 5.33331 2.51016 3.48994 3.33346 2.66665C4.15675 1.84335 6.00012 1.33331 6.00012 1.33331H22.0001M7.33346 10.6666H19.3335V5.33331C19.3335 5.33331 19.4794 4.11436 20.0001 3.33331C20.5208 2.55226 22.0001 1.33331 22.0001 1.33331M26.0001 26.6666H19.2998M26.0001 26.6666H28.6668L30.6668 26L31.3335 24V18.6666H26.0001M26.0001 26.6666V18.6666M26.0001 18.6666V1.33331H22.0001" stroke="#098CE9" stroke-width="2" stroke-linejoin="round"></path></g><defs><clipPath id="clip0_1417_10"><rect width="32" height="32" fill="white" transform="translate(0.666748)"></rect></clipPath></defs></svg>