<svg xmlns="http://www.w3.org/2000/svg" width="16" height="17" viewBox="0 0 16 17" fill="none"><g clip-path="url(#clip0_1347_26464)"><path d="M8 1.00006V15.6667" stroke="#098CE9" stroke-width="1.5" stroke-linecap="round" stroke-linejoin="round"></path><path d="M11.3333 3.66669H6.33333C5.71449 3.66669 5.121 3.91252 4.68342 4.3501C4.24583 4.78769 4 5.38118 4 6.00002C4 6.61886 4.24583 7.21235 4.68342 7.64994C5.121 8.08752 5.71449 8.33335 6.33333 8.33335H9.66667C10.2855 8.33335 10.879 8.57919 11.3166 9.01677C11.7542 9.45436 12 10.0478 12 10.6667C12 11.2855 11.7542 11.879 11.3166 12.3166C10.879 12.7542 10.2855 13 9.66667 13H4" stroke="#098CE9" stroke-width="1.5" stroke-linecap="round" stroke-linejoin="round"></path></g><defs><clipPath id="clip0_1347_26464"><rect width="16" height="16" fill="white" transform="translate(0 0.333374)"></rect></clipPath></defs></svg>