<svg xmlns="http://www.w3.org/2000/svg" width="32" height="32" viewBox="0 0 32 32" fill="none"><path d="M5.42498 28.5325C5.31358 28.5325 5.20146 28.5061 5.09578 28.4518C4.78229 28.2903 4.60734 27.9215 4.66732 27.5504L6.25475 19.142H0.76908C0.344194 19.142 0 18.7678 0 18.3058V3.50282C0 3.04086 0.344194 2.66663 0.76908 2.66663H13.8927C14.3176 2.66663 14.6618 3.04086 14.6618 3.50282V18.3051C14.6618 18.5046 14.5961 18.6979 14.4761 18.8501L6.00839 28.2406C5.85843 28.43 5.6442 28.5325 5.42498 28.5325ZM1.53887 17.4689H7.17308C7.40088 17.4689 7.61653 17.5783 7.76292 17.7678C7.90931 17.9572 7.97072 18.2072 7.93073 18.451L6.67393 24.8314L13.1243 17.9953V4.3398H1.53887V17.4689Z" fill="#121212"></path><path d="M22.7629 28.5325C22.6515 28.5325 22.5394 28.5061 22.4337 28.4518C22.1202 28.2903 21.9452 27.9215 22.0052 27.5496L23.5926 19.1413H18.107C17.6821 19.1413 17.3379 18.767 17.3379 18.3051V3.50282C17.3379 3.04086 17.6821 2.66663 18.107 2.66663H31.2306C31.4348 2.66663 31.6305 2.75514 31.7747 2.91197C31.919 3.06881 31.9997 3.28154 31.9997 3.5036V18.3058C31.9997 18.5054 31.9333 18.6987 31.8133 18.8509L23.3456 28.2414C23.1956 28.4308 22.9807 28.5333 22.7614 28.5333L22.7629 28.5325ZM18.8768 17.4689H24.511C24.7388 17.4689 24.9544 17.5783 25.1008 17.7678C25.2472 17.9572 25.3086 18.2072 25.2686 18.451L24.0118 24.8306L30.4622 17.9953V4.33979H18.8775L18.8768 17.4689Z" fill="#121212"></path></svg>