<svg xmlns="http://www.w3.org/2000/svg" width="33" height="32" viewBox="0 0 33 32" fill="none"><g clip-path="url(#clip0_1417_2033)"><path d="M30.9999 21.6141C30.9999 21.7559 30.974 21.9005 30.9654 22.043C30.776 24.7059 30.1214 26.7076 28.933 28.3518C28.2268 29.299 27.3483 30.0318 26.246 30.5679C25.9704 30.7109 25.712 30.693 25.402 30.55C23.3695 29.5671 22.026 27.8514 21.2682 25.3136C20.9237 24.1876 20.717 22.9723 20.7342 21.5783C22.405 20.7205 24.0929 19.8448 25.7465 18.969C25.7809 18.9512 25.8154 18.9333 25.8326 18.9333C25.867 18.9333 25.8843 18.9512 25.9359 18.969L27.5034 19.7911C28.6441 20.3732 30.0871 21.0958 30.9999 21.6141Z" stroke="#098CE9" stroke-width="2"></path><path d="M19.2667 30.6666H1.66669V1.33331H28.0667V14.5333M7.53335 7.19998H13.4M7.53335 13.0666H22.2M7.53335 18.9333H16.3334M7.53335 24.8H16.3334" stroke="#098CE9" stroke-width="2" stroke-linecap="round" stroke-linejoin="round"></path></g><defs><clipPath id="clip0_1417_2033"><rect width="32" height="32" fill="white" transform="translate(0.333374)"></rect></clipPath></defs></svg>