<svg xmlns="http://www.w3.org/2000/svg" width="20" height="20" viewBox="0 0 20 20" fill="none"><path d="M16.986 16.9613C15.1305 14.2539 13.2734 11.5473 11.4171 8.84044C11.3928 8.80518 11.3706 8.76847 11.3404 8.72163C11.6655 8.34258 11.9891 7.96515 12.313 7.58791C13.9963 5.62737 15.6798 3.66665 17.3631 1.70593C17.3735 1.69363 17.3819 1.67971 17.3913 1.6665H15.9617C14.2145 3.70101 12.4672 5.7357 10.6922 7.80257C10.6709 7.76405 10.6557 7.73096 10.6354 7.70148C9.27242 5.71327 7.90903 3.72542 6.546 1.73721C6.53099 1.71515 6.52032 1.69019 6.50748 1.6665H1.66663C1.70858 1.73522 1.74728 1.80612 1.79267 1.87231C3.83857 4.85661 5.88501 7.84055 7.93146 10.8247C7.9528 10.8558 7.97323 10.8876 8.00307 10.9326C7.83687 11.1276 7.66977 11.3245 7.50141 11.5206C5.59892 13.7361 3.69625 15.9514 1.79394 18.1672C1.74873 18.22 1.70894 18.2777 1.66663 18.3332H3.0962C3.74363 17.5756 4.38979 16.817 5.03848 16.0605C6.19173 14.7156 7.3466 13.3717 8.50076 12.0277C8.54289 11.9785 8.58629 11.9305 8.63657 11.8732C8.66912 11.9126 8.69806 11.943 8.72157 11.9772C10.1524 14.0632 11.5829 16.1495 13.0132 18.2361C13.0344 18.267 13.0514 18.3008 13.0703 18.3332H17.911C17.6029 17.8758 17.2978 17.4163 16.986 16.9613ZM15.7676 17.2971C15.1506 17.2977 14.5336 17.2944 13.9165 17.3002C13.8017 17.3011 13.731 17.2684 13.6639 17.1723C10.3497 12.4176 7.03284 7.66441 3.7165 2.91108C3.68594 2.86731 3.65809 2.82156 3.60926 2.74669C4.21455 2.74669 4.78819 2.76948 5.35894 2.73801C5.69657 2.71938 5.88266 2.8382 6.07382 3.11344C9.31221 7.77581 12.5634 12.4293 15.8118 17.0848C15.8539 17.1452 15.8946 17.2065 15.9499 17.2875C15.8705 17.2919 15.8192 17.2969 15.7676 17.2971Z" fill="#169DF0"></path></svg>