<svg xmlns="http://www.w3.org/2000/svg" width="20" height="20" viewBox="0 0 20 20" fill="none"><path d="M18.8684 5.72938C18.668 4.62192 17.9912 3.91099 16.9329 3.71745C16.4963 3.63728 16.0517 3.57887 15.6082 3.55883C13.7274 3.47379 11.8457 3.40708 9.96431 3.3335C9.96374 3.35297 9.96317 3.37244 9.96259 3.3919C9.52997 3.3919 9.09706 3.38561 8.66473 3.39305C6.87096 3.42311 5.07691 3.44287 3.29259 3.66562C2.18283 3.80391 1.41407 4.46387 1.18302 5.56103C1.05389 6.17375 0.983456 6.80192 0.932491 7.42695C0.823405 8.76375 0.796492 10.1049 0.891548 11.4437C0.950529 12.2717 1.02612 13.1023 1.16383 13.9203C1.3445 14.9917 2.08291 15.7 3.12252 15.8544C3.7381 15.9457 4.35969 16.0236 4.98099 16.0439C6.88814 16.1057 8.79643 16.163 10.7044 16.1725C12.6064 16.1822 14.5093 16.137 16.4038 15.938C16.8923 15.8864 17.3736 15.8085 17.8005 15.5351C18.5065 15.083 18.8278 14.4036 18.9048 13.6056C19.0087 12.5259 19.1141 11.4437 19.1496 10.3605C19.2008 8.81071 19.1453 7.26146 18.8684 5.72938ZM8.18715 12.5185V7.04558C9.77563 7.95864 11.3475 8.86225 12.9471 9.78189C11.3498 10.7004 9.77821 11.6037 8.18715 12.5185Z" fill="#FF0200"></path></svg>