<svg xmlns="http://www.w3.org/2000/svg" width="16" height="16" viewBox="0 0 16 16" fill="none"><g clip-path="url(#clip0_1576_24382)"><path d="M14.5035 0.683791C13.6768 -0.156209 12.3568 -0.229542 11.4435 0.503791C10.9902 0.863791 10.7102 1.33712 10.6102 1.89712C10.4902 2.59712 10.6702 3.23712 11.1368 3.79046C10.9235 3.93046 10.7035 4.11046 10.5302 4.37046C10.3102 4.70379 10.3702 5.09046 10.6768 5.30379C10.9635 5.50379 11.3168 5.43712 11.5768 5.13712C11.7168 4.98379 11.8702 4.85713 12.0168 4.77713C12.2368 4.65046 12.5168 4.59713 12.8635 4.59713C13.5235 4.60379 13.9235 4.77712 14.2102 5.17046C14.3235 5.33046 14.4968 5.41712 14.6902 5.41712C14.7435 5.41712 14.7968 5.41046 14.8502 5.39712C15.0568 5.35046 15.2168 5.21046 15.2968 5.02379C15.3768 4.83046 15.3635 4.60379 15.2435 4.41046C15.0702 4.13046 14.8302 3.93046 14.6102 3.78379C15.4635 2.76379 15.2502 1.43046 14.5035 0.683791ZM13.8702 2.30379C13.8635 2.85046 13.4168 3.29712 12.8768 3.29712C12.3235 3.29712 11.8768 2.84379 11.8768 2.29046C11.8835 1.74379 12.3302 1.30379 12.8702 1.30379C13.1368 1.30379 13.3902 1.41046 13.5835 1.60379C13.7702 1.79046 13.8702 2.03712 13.8702 2.30379Z" fill="#098CE9"></path><path d="M13.9993 7.73334C13.9993 7.29334 14.2793 6.98667 14.666 6.98667C15.0527 6.98667 15.3327 7.28667 15.3327 7.74001V9.43334C15.3327 10.5667 15.3393 11.7 15.3327 12.8333C15.3327 14.04 14.366 14.9467 13.166 14.9467H2.76435C1.57102 14.9467 0.671016 14.0467 0.671016 12.86C0.664349 10.1 0.664349 7.34001 0.671016 4.57334C0.671016 3.38668 1.57102 2.49334 2.76435 2.49334C4.54435 2.48668 6.33102 2.48668 8.11101 2.49334C8.38435 2.49334 8.61768 2.61334 8.74435 2.82001C8.85768 3.00668 8.86435 3.22668 8.75768 3.43334C8.67101 3.59334 8.49102 3.78668 8.12435 3.78668H2.80435C2.27102 3.78668 1.96435 4.09334 1.96435 4.62668V5.66001V6.95334V12.7867C1.96435 13.3267 2.27768 13.64 2.81768 13.64H13.166C13.6927 13.64 13.9993 13.32 13.9993 12.7933V7.73334Z" fill="#098CE9"></path><path fill-rule="evenodd" clip-rule="evenodd" d="M4 8.00001C4 7.63182 4.29848 7.33334 4.66667 7.33334H11.471C11.8392 7.33334 12.1377 7.63182 12.1377 8.00001C12.1377 8.3682 11.8392 8.66668 11.471 8.66668H4.66667C4.29848 8.66668 4 8.3682 4 8.00001ZM4 11.0794C4 10.7112 4.29848 10.4127 4.66667 10.4127H9.41202C9.78021 10.4127 10.0787 10.7112 10.0787 11.0794C10.0787 11.4476 9.78021 11.746 9.41202 11.746H4.66667C4.29848 11.746 4 11.4476 4 11.0794Z" fill="#098CE9"></path></g><defs><clipPath id="clip0_1576_24382"><rect width="16" height="16" fill="white"></rect></clipPath></defs></svg>