<svg width="28" height="24" viewBox="0 0 28 24" fill="none" xmlns="http://www.w3.org/2000/svg">
<path d="M13.8366 22.9439L3.93872 17.6551V11.6693L13.8363 16.8005L18.4281 14.3792L19.723 13.6461L21.7176 12.5522C22.27 12.2492 22.9238 12.2599 23.4659 12.581C24.0082 12.902 24.3318 13.47 24.3318 14.1001V14.9342C24.3318 16.4006 23.5341 17.7508 22.2495 18.4582L20.6849 19.333L13.8363 22.9442L13.8366 22.9439ZM4.72259 17.1854L13.8392 22.0565L20.3156 18.6417L21.8697 17.7726C22.9062 17.2018 23.5486 16.1145 23.5486 14.9338V14.0998C23.5486 13.7494 23.3686 13.4337 23.0672 13.2553C22.7657 13.0769 22.4023 13.0709 22.0951 13.2392L20.1053 14.3305L18.7996 15.0696L13.8401 17.6848L4.72322 12.9582V17.185L4.72259 17.1854Z" fill="#098CE9"/>
<path d="M13.8376 20.814L6.1817 16.7649V16.3217L13.8379 20.3708L21.6266 16.2614V16.6904L13.8376 20.814Z" fill="#098CE9"/>
<path d="M13.8379 19.2L6.1817 15.1446V14.7011L13.8379 18.7568L21.6266 14.6367V15.0827L13.8379 19.2Z" fill="#098CE9"/>
<path d="M21.2479 22.6401L20.2563 22.0346L19.2647 23.6835V17.6765L21.2479 16.6331V22.6401Z" fill="#098CE9"/>
<path d="M13.8381 0.712891L27.6758 7.82326L13.8381 14.9336L0 7.82326L13.8381 0.712891Z" fill="#098CE9"/>
</svg>
