<svg xmlns="http://www.w3.org/2000/svg" width="46" height="30" viewBox="0 0 46 30" fill="none"><path d="M32.3899 16.0643L23.1995 3.76316L14.0043 16.0643L3.24669 10.0601L8.34935 25.9628H38.0496L43.1475 10.0601L32.3899 16.0643Z" fill="white"></path><path d="M38.7339 30H7.66006L8.28314 27.097H38.1108L38.7339 30Z" fill="white"></path><path d="M24.9482 1.75124C24.9482 2.7189 24.1646 3.50247 23.1969 3.50247C22.2293 3.50247 21.4457 2.7189 21.4457 1.75124C21.4457 0.783572 22.2293 0 23.1969 0C24.1646 0 24.9482 0.783572 24.9482 1.75124Z" fill="white"></path><path d="M45.9996 8.65185C45.9996 9.61952 45.2161 10.4031 44.2484 10.4031C43.2807 10.4031 42.4972 9.61952 42.4972 8.65185C42.4972 7.68419 43.2807 6.90062 44.2484 6.90062C45.2161 6.90062 45.9996 7.68419 45.9996 8.65185Z" fill="white"></path><path d="M0.396484 8.65185C0.396484 9.61952 1.18006 10.4031 2.14772 10.4031C3.11539 10.4031 3.89896 9.61952 3.89896 8.65185C3.89896 7.68419 3.11539 6.90062 2.14772 6.90062C1.18006 6.90062 0.396484 7.68419 0.396484 8.65185Z" fill="white"></path></svg>